<?xml version="1.0" encoding="utf-8"?>
<!-- Generator: Adobe Illustrator 26.0.1, SVG Export Plug-In . SVG Version: 6.00 Build 0)  -->
<svg version="1.1" id="Layer_1" xmlns="http://www.w3.org/2000/svg" xmlns:xlink="http://www.w3.org/1999/xlink" x="0px" y="0px"
	 viewBox="0 0 738 432" style="enable-background:new 0 0 738 432;" xml:space="preserve">
<style type="text/css">
	.st0{fill:#FFFFFF;}
</style>
<rect class="st0" width="738" height="432"/>
<g>
	<g>
		<g>
			<path d="M205.3,218.11c0.03-0.03,0.05-0.06,0.05-0.09c0.06-0.03,0.11-0.08,0.14-0.14c0.46-1.16,0.98-2.31,1.56-3.44
				c0.55-1.1,1.05-2.22,1.51-3.35c2.51-6.05,5.37-11.88,8.58-17.47c0.98-1.8,2.05-3.52,3.21-5.14c0.34-0.49,0.72-0.92,1.15-1.28
				c0.43-0.31,0.83-0.46,1.19-0.46s0.72,0.14,1.05,0.41c0.43,0.4,0.64,0.89,0.64,1.47c0,0.28-0.05,0.58-0.14,0.92
				c-0.25,0.58-0.54,1.15-0.87,1.7c-3.27,5.5-6.25,11.17-8.94,17.01c-2.45,5.26-4.78,10.58-7.02,15.96
				c-0.24,0.52-0.47,1.04-0.69,1.56c-1.13,2.6-2.16,5.24-3.07,7.93c-0.37,1.01-0.76,2-1.19,2.98c-0.46,1.04-0.87,2.09-1.24,3.16
				c-0.03,0.12-0.06,0.23-0.09,0.32c-0.03,0.21-0.09,0.41-0.18,0.6c-0.09,0.18-0.25,0.34-0.46,0.46c-0.03,0.03-0.05,0.06-0.07,0.09
				c-0.02,0.03-0.04,0.08-0.07,0.14c0,0.03-0.02,0.06-0.05,0.09c-1.38,3.18-2.48,6.46-3.3,9.86c-0.18,0.67-0.28,1.34-0.28,2.02
				c0,0.46,0.05,0.93,0.14,1.42c0.03,0.21,0.09,0.41,0.18,0.6c0.09,0.18,0.24,0.32,0.46,0.41c0.12,0.09,0.18,0.2,0.18,0.32
				s-0.08,0.23-0.23,0.32c-0.18,0.12-0.37,0.18-0.55,0.18c-0.25,0-0.49-0.09-0.73-0.28c-0.46-0.34-0.81-0.76-1.05-1.28
				c-0.55-1.1-0.83-2.26-0.83-3.48v-0.18c0-1.9,0.21-3.74,0.64-5.55c0.24-1.1,0.53-2.18,0.87-3.25c0.18-0.61,0.35-1.22,0.5-1.83
				c0.43-1.5,0.95-2.93,1.56-4.31c0.37-0.86,0.7-1.71,1.01-2.57c0.79-2.17,1.65-4.31,2.57-6.42c0.03-0.12,0.08-0.24,0.14-0.37
				c1.5-3.73,2.41-7.63,2.75-11.69c0.12-0.98,0.18-1.97,0.18-2.98c0-1.22-0.09-2.45-0.27-3.67c-0.7-3.21-1.99-6.08-3.85-8.62
				c-0.89-1.28-1.87-2.48-2.93-3.58c-0.31-0.34-0.6-0.67-0.87-1.01c-0.89-0.95-1.67-1.97-2.34-3.07c-0.61-0.95-0.96-1.99-1.05-3.12
				v-0.14c0-1.31,0.41-2.43,1.24-3.35c0.76-0.83,1.62-1.48,2.57-1.97c2.17-1.13,4.43-1.96,6.79-2.48c4.46-1.1,8.97-1.93,13.53-2.48
				c3.97-0.49,7.95-0.89,11.92-1.19c0.18,0,0.37-0.01,0.55-0.05c0.7-0.06,1.42-0.11,2.16-0.14l2.57-0.18
				c2.29-0.18,4.6-0.27,6.92-0.27h1.01c4.31,0.09,8.6,0.2,12.89,0.32l8.35,0.27h0.14c0.98,0,1.88,0.32,2.71,0.96
				c0.83,0.61,1.24,1.47,1.24,2.57c-0.03,0.86-0.4,1.28-1.1,1.28h-0.14l-1.65-0.09c-0.55-0.06-1.12-0.11-1.7-0.14l-5.69-0.18
				l-6.69-0.18c-2.54-0.09-5.06-0.14-7.57-0.14c-2.9,0-5.81,0.06-8.71,0.18c-6.08,0.28-12.15,0.75-18.2,1.42
				c-4.49,0.49-8.94,1.27-13.34,2.34c-1.62,0.37-3.19,0.92-4.72,1.65c-0.52,0.25-0.99,0.55-1.42,0.92
				c-0.37,0.31-0.55,0.69-0.55,1.15c0,0.18,0.03,0.38,0.09,0.6c0.21,0.67,0.5,1.28,0.87,1.83c0.64,1.01,1.33,1.99,2.06,2.93
				c2.11,2.6,3.82,5.5,5.14,8.71c0.92,2.45,1.38,4.95,1.38,7.52c0,0.58-0.02,1.15-0.05,1.7c0,0.25-0.02,0.47-0.05,0.69
				C205.62,215.01,205.48,216.56,205.3,218.11z"/>
			<path d="M224.23,226.32l0.28-0.37l0.64-0.92c0.12-0.18,0.23-0.37,0.32-0.55c1.13-1.77,2.34-3.47,3.62-5.09
				c1.62-2.02,3.5-3.74,5.64-5.18c0.4-0.24,0.76-0.37,1.1-0.37c0.49,0,0.95,0.26,1.38,0.78c0.4,0.55,0.6,1.16,0.6,1.83l-0.05,0.41
				c-0.09,0.76-0.26,1.5-0.5,2.2c-0.37,1.1-0.75,2.2-1.15,3.3c-0.43,1.25-0.8,2.54-1.1,3.85v0.05c-0.03,0.18-0.05,0.37-0.05,0.55
				v0.28c0.15-0.03,0.28-0.08,0.39-0.16c0.11-0.08,0.21-0.16,0.3-0.25c0.06-0.03,0.11-0.08,0.14-0.14c2.11-1.77,4.1-3.67,5.96-5.69
				c1.19-1.25,2.45-2.43,3.76-3.53c0.03,0,0.06-0.02,0.09-0.05c0.18-0.18,0.41-0.34,0.69-0.46c0.06-0.03,0.12-0.05,0.18-0.05
				c0.12,0,0.23,0.06,0.32,0.18c0.06,0.06,0.09,0.14,0.09,0.23c0,0.06-0.03,0.14-0.09,0.23c-0.12,0.18-0.25,0.34-0.37,0.46
				c-3.52,3.79-6.91,7.69-10.18,11.69c-0.37,0.49-0.8,0.93-1.28,1.33c-0.64,0.46-1.25,0.69-1.83,0.69c-0.28,0-0.55-0.05-0.83-0.14
				c-0.83-0.3-1.38-1.01-1.65-2.11c-0.06-0.4-0.09-0.79-0.09-1.19c0-0.73,0.09-1.45,0.27-2.16c0.49-2.51,1.22-4.95,2.2-7.34
				c0.12-0.37,0.24-0.72,0.37-1.05c0.06-0.18,0.12-0.35,0.18-0.5c-0.06-0.03-0.12-0.05-0.18-0.05h-0.09
				c-0.06,0.06-0.12,0.11-0.18,0.14c0,0.03-0.02,0.06-0.05,0.09c-0.89,0.73-1.68,1.56-2.38,2.48c-3.3,4.16-6.13,8.61-8.48,13.34
				c-0.31,0.61-0.53,1.25-0.69,1.93c-0.06,0.25-0.12,0.47-0.18,0.69c-0.28,0.86-0.8,1.62-1.58,2.29c-0.78,0.67-1.66,1.05-2.64,1.15
				h-0.41c-0.4,0-0.64-0.06-0.73-0.18c-0.03-0.03-0.05-0.09-0.05-0.18c0-0.18,0.11-0.49,0.32-0.92c0.37-0.76,0.63-1.56,0.78-2.38
				c0.09-0.3,0.17-0.6,0.23-0.87c1.68-6.48,3.79-12.82,6.33-19.03c1.47-3.39,3-6.76,4.59-10.09c0.28-0.55,0.53-1.12,0.78-1.7
				c1.13-2.32,2.49-4.89,4.08-7.7c0.67-1.22,1.27-2.32,1.79-3.3c0.03-0.06,0.06-0.14,0.09-0.23c0.43-0.76,0.81-1.54,1.15-2.34
				c0.7-1.31,1.74-2.2,3.12-2.66c0.4-0.18,0.81-0.31,1.24-0.37l0.37-0.09l0.28-0.05l0.27,0.05c0.15,0.03,0.29,0.14,0.41,0.32
				c0.12,0.21,0.18,0.43,0.18,0.64c0,0.18-0.05,0.37-0.14,0.55c-0.4,0.58-0.75,1.19-1.05,1.83c-0.12,0.21-0.23,0.44-0.32,0.69
				c-4.1,7.46-7.93,15.04-11.51,22.74c-1.68,3.67-3.18,7.43-4.49,11.28c-0.09,0.25-0.17,0.49-0.23,0.73l-0.09,0.37h0.05
				C224.17,226.31,224.2,226.32,224.23,226.32z"/>
			<path d="M244.46,228.25c0.06-0.03,0.11-0.06,0.14-0.09c0.09-0.03,0.15-0.08,0.18-0.14c1.83-1.56,3.39-3.36,4.68-5.41
				c0.18-0.28,0.27-0.57,0.27-0.87c0-0.12-0.02-0.24-0.05-0.37c-0.06-0.27-0.09-0.55-0.09-0.83c0-0.55,0.14-1.08,0.41-1.6
				c0.34-0.58,0.84-0.9,1.51-0.96c0.92,0.03,1.45,0.49,1.6,1.38v0.5c0,0.67,0.18,1.21,0.55,1.6c0.43,0.37,0.92,0.55,1.47,0.55
				c0.52,0,1.1-0.15,1.74-0.46c1.31-0.61,2.51-1.36,3.58-2.25c1.07-0.89,1.9-1.6,2.48-2.16c0.18-0.15,0.35-0.23,0.5-0.23
				c0.12,0,0.24,0.06,0.37,0.18c0.12,0.15,0.18,0.31,0.18,0.46c0,0.15-0.08,0.31-0.23,0.46c-0.73,1.13-2.16,2.45-4.26,3.94
				c-2.11,1.5-4.19,2.25-6.24,2.25c-0.37,0-0.75-0.03-1.15-0.09c-0.12-0.06-0.23-0.09-0.32-0.09c-0.06,0-0.12,0.02-0.18,0.04
				c-0.12,0.03-0.21,0.14-0.28,0.32c-0.83,1.59-1.71,3.12-2.66,4.59c-0.55,0.92-1.16,1.79-1.83,2.61c-0.64,0.83-1.47,1.44-2.48,1.83
				c-0.43,0.15-0.83,0.23-1.19,0.23c-0.52,0-1.02-0.14-1.51-0.41c-0.79-0.43-1.34-1.16-1.65-2.2c-0.12-0.46-0.18-0.92-0.18-1.38
				c0-0.4,0.05-0.78,0.14-1.15c0.03-0.4,0.11-0.79,0.23-1.19c1.31-4.55,3.52-8.56,6.6-12.01c0.79-0.86,1.67-1.6,2.61-2.25
				c0.61-0.43,1.28-0.72,2.02-0.87c0.21-0.03,0.43-0.05,0.64-0.05c0.64,0,1.21,0.17,1.7,0.5c0.67,0.46,1.12,1.13,1.33,2.02
				c0.06,0.34,0.09,0.67,0.09,1.01c0,0.92-0.28,1.76-0.83,2.52c-0.09,0.15-0.2,0.27-0.32,0.34c-0.12,0.08-0.25,0.11-0.37,0.11
				c-0.06,0-0.14-0.01-0.23-0.05c-0.37-0.15-0.58-0.43-0.64-0.83c-0.06-0.37-0.17-0.72-0.32-1.05c-0.06-0.18-0.17-0.27-0.32-0.27
				c-0.09,0-0.18,0.03-0.28,0.09c-0.06,0.06-0.14,0.12-0.23,0.18l-0.46,0.37c-1.04,0.86-1.96,1.82-2.75,2.89
				c-1.65,2.29-2.94,4.78-3.85,7.47c-0.03,0.03-0.05,0.06-0.05,0.09c-0.06,0.09-0.09,0.18-0.09,0.25c0,0.08,0,0.15,0,0.21V228.25z"
				/>
			<path d="M275.13,224.99c0.27-0.15,0.49-0.34,0.64-0.55c0.06-0.06,0.11-0.12,0.14-0.18c1.8-2.05,3.7-4.04,5.69-5.96
				c1.04-1.01,2.12-1.96,3.26-2.84c0.4-0.34,0.84-0.63,1.33-0.87c0.4-0.15,0.78-0.23,1.15-0.23c0.49,0,0.95,0.14,1.38,0.41
				c0.76,0.49,1.18,1.24,1.24,2.25c-0.03,0.64-0.18,1.27-0.46,1.88c-0.55,1.28-1.22,2.51-2.02,3.67c-1.16,1.74-2.28,3.5-3.35,5.27
				l-0.09,0.18c-0.18,0.27-0.31,0.57-0.37,0.87h0.28c0.09-0.06,0.17-0.11,0.23-0.14c0.03-0.03,0.08-0.06,0.14-0.09
				c1.93-1.28,3.71-2.77,5.37-4.45c0.27-0.24,0.77-0.79,1.49-1.65c0.72-0.86,1.47-1.77,2.27-2.75c0.61-0.76,1.16-1.44,1.65-2.04
				c0.49-0.6,0.86-1.02,1.1-1.26c0.12-0.06,0.23-0.1,0.32-0.11c0.09-0.02,0.15-0.02,0.18-0.02c0.12,0,0.23,0.05,0.32,0.14
				c0.24,0.24,0.37,0.49,0.37,0.73c0,0.15-0.03,0.29-0.09,0.41c-0.31,0.46-1.18,1.54-2.61,3.23c-1.44,1.7-2.92,3.42-4.45,5.16
				c-1.53,1.74-2.55,2.9-3.07,3.48c-0.73,0.76-1.5,1.48-2.29,2.16c-0.18,0.15-0.37,0.32-0.55,0.5c-0.43,0.34-0.87,0.63-1.33,0.87
				c-0.52,0.25-1.01,0.37-1.47,0.37c-0.4,0-0.78-0.09-1.15-0.27c-0.76-0.43-1.22-1.16-1.38-2.2c-0.03-0.18-0.05-0.38-0.05-0.6
				c0-0.7,0.14-1.39,0.41-2.06c0.37-1.01,0.83-1.96,1.38-2.84c1.01-1.71,2.06-3.39,3.16-5.04c0.06-0.09,0.14-0.2,0.23-0.32
				c0.03-0.06,0.06-0.11,0.09-0.14c0.15-0.21,0.28-0.49,0.37-0.83c-0.31,0.12-0.55,0.27-0.73,0.46c-0.06,0.03-0.11,0.08-0.14,0.14
				c-2.11,1.62-4,3.48-5.69,5.59l-1.19,1.47c-1.38,1.65-2.71,3.35-3.99,5.09c-0.15,0.21-0.34,0.43-0.55,0.64
				c-0.46,0.43-0.95,0.64-1.47,0.64c-0.31,0-0.61-0.06-0.92-0.18c-0.89-0.4-1.33-1.08-1.33-2.06c0-0.52,0.09-1.01,0.28-1.47v-0.05
				c0.64-2.17,1.47-4.28,2.48-6.33c0.28-0.55,0.53-1.09,0.78-1.61c0.46-0.92,0.92-1.85,1.38-2.8c0.09-0.21,0.18-0.44,0.27-0.69
				l0.18-0.37c-0.12,0-0.22,0.03-0.3,0.09c-0.08,0.06-0.15,0.12-0.21,0.18c-0.03,0.03-0.06,0.05-0.09,0.05
				c-1.41,1.47-2.72,3.01-3.94,4.63c-1.31,1.74-2.64,3.49-3.99,5.23c-0.28,0.37-0.57,0.73-0.87,1.1c-0.52,0.7-1.01,1.42-1.47,2.16
				c-0.15,0.27-0.34,0.54-0.55,0.78c-0.52,0.55-1.1,0.83-1.74,0.83c-0.12,0-0.26-0.01-0.41-0.05c-0.76-0.15-1.33-0.66-1.7-1.51
				c-0.18-0.52-0.28-1.05-0.28-1.61c0-0.3,0.03-0.61,0.09-0.92c0.12-0.92,0.35-1.82,0.69-2.71c1.19-3.42,2.66-6.73,4.4-9.9
				c0.31-0.64,0.7-1.22,1.19-1.74c0.43-0.49,0.98-0.79,1.65-0.92h0.27c0.46,0,0.84,0.14,1.15,0.41c0.37,0.34,0.55,0.78,0.55,1.33
				c-0.03,0.58-0.21,1.12-0.55,1.6v0.05c-1.62,2.97-3.04,6.02-4.26,9.17c0,0.06-0.02,0.12-0.05,0.18c-0.06,0.12-0.1,0.23-0.11,0.32
				c-0.02,0.09-0.02,0.17-0.02,0.23v0.23c0.86-0.67,1.59-1.42,2.2-2.25c1.38-1.9,2.69-3.85,3.94-5.87c0.15-0.21,0.31-0.44,0.46-0.69
				c0.89-1.44,1.97-2.69,3.26-3.76c0.28-0.21,0.57-0.43,0.87-0.64c0.52-0.27,1.01-0.41,1.47-0.41c0.4,0,0.78,0.09,1.15,0.27
				c0.83,0.37,1.36,1.05,1.6,2.06c0.03,0.28,0.05,0.55,0.05,0.83c0,0.49-0.06,0.96-0.18,1.42c-0.18,0.8-0.46,1.56-0.83,2.29
				l-1.1,2.29c-0.28,0.55-0.54,1.1-0.78,1.65l-0.09,0.18C275.26,224.43,275.16,224.69,275.13,224.99z"/>
			<path d="M302.01,223.71c-0.31,0.15-0.52,0.32-0.64,0.5l-0.09,0.18c-0.61,0.7-1.22,1.42-1.83,2.16c-0.83,0.95-1.65,1.91-2.48,2.89
				c-0.76,0.89-1.59,1.7-2.48,2.43c-0.43,0.4-0.89,0.7-1.38,0.92c-0.37,0.15-0.73,0.23-1.1,0.23s-0.72-0.09-1.05-0.28
				c-0.64-0.34-1.05-0.9-1.24-1.7c-0.09-0.4-0.14-0.78-0.14-1.15c0-0.37,0.05-0.73,0.14-1.1c1.13-4.98,3.49-9.28,7.06-12.89
				c0.7-0.67,1.48-1.22,2.34-1.65c0.12-0.09,0.24-0.15,0.37-0.18c0.58-0.21,1.12-0.32,1.6-0.32c0.89,0,1.65,0.34,2.29,1.01
				c0.43,0.52,0.65,0.98,0.67,1.38c0.02,0.4,0.02,0.63,0.02,0.69c0,0.67-0.15,1.31-0.46,1.93c-0.03,0-0.05,0.02-0.05,0.05
				c-0.03,0.06-0.06,0.11-0.09,0.14c-0.09,0.12-0.18,0.22-0.25,0.3c-0.08,0.08-0.16,0.11-0.25,0.11c-0.06,0-0.12-0.02-0.18-0.05
				c-0.15-0.03-0.25-0.1-0.3-0.21c-0.05-0.11-0.08-0.24-0.11-0.39c0-0.06-0.02-0.12-0.05-0.18c-0.03-0.31-0.08-0.6-0.14-0.87
				c-0.06-0.31-0.12-0.47-0.18-0.48c-0.06-0.02-0.11-0.02-0.14-0.02c-0.09,0-0.25,0.08-0.46,0.23c-0.95,0.64-1.79,1.39-2.52,2.25
				c-2.14,2.57-3.73,5.44-4.77,8.62v0.09c-0.03,0.06-0.05,0.12-0.05,0.18v0.09c0,0.06,0.02,0.12,0.05,0.18
				c0.34-0.12,0.64-0.31,0.92-0.55c0.06-0.06,0.12-0.11,0.18-0.14c2.66-2.05,5.07-4.36,7.25-6.92c0.73-0.83,1.33-1.74,1.79-2.75
				c0.21-0.49,0.47-0.98,0.78-1.47l0.18-0.37c0.21-0.4,0.47-0.73,0.78-1.01c0.37-0.37,0.78-0.55,1.24-0.55
				c0.18,0,0.37,0.03,0.55,0.09c0.7,0.28,1.1,0.78,1.19,1.51l0.04,0.41c0,0.4-0.08,0.8-0.23,1.19c-0.28,0.7-0.57,1.39-0.87,2.06
				c-0.37,0.76-0.66,1.38-0.87,1.83c-0.28,0.52-0.52,1.03-0.73,1.54c-0.21,0.5-0.44,1.22-0.69,2.13c-0.25,0.79-0.43,1.59-0.55,2.38
				l-0.09,0.73v0.09c0,0.34,0.08,0.5,0.23,0.5c0.12,0,0.28-0.08,0.46-0.23c0.64-0.49,1.25-1.02,1.83-1.6
				c0.43-0.46,0.85-0.9,1.28-1.33c3.09-2.9,5.56-5.73,7.43-8.48c0.24-0.31,0.54-0.57,0.87-0.78c0.09-0.09,0.18-0.14,0.28-0.14
				c0.12,0,0.23,0.05,0.32,0.14c0.12,0.09,0.18,0.21,0.18,0.37c0,0.06-0.02,0.14-0.04,0.23c-0.15,0.37-0.35,0.7-0.6,1.01
				c-0.46,0.61-0.96,1.3-1.51,2.06c-1.5,2.11-3.13,4.3-4.88,6.58s-3.34,4.03-4.75,5.25c-0.64,0.49-1.28,0.73-1.93,0.73h-0.32
				c-0.8-0.09-1.48-0.5-2.06-1.24c-0.61-0.89-0.92-1.86-0.92-2.93v-0.14c0.06-1.56,0.32-2.93,0.78-4.13
				c0.06-0.21,0.12-0.41,0.18-0.6c0.03-0.06,0.05-0.14,0.05-0.23C301.9,223.98,301.94,223.86,302.01,223.71z"/>
			<path d="M325.25,223.25c0.15,0,0.28-0.02,0.39-0.07s0.19-0.1,0.25-0.16c0.06-0.03,0.11-0.06,0.14-0.09
				c1.99-1.22,4.1-2.72,6.33-4.49c0.95-0.73,1.79-1.36,2.52-1.88c0.24-0.09,0.47-0.14,0.69-0.14c0.24,0,0.49,0.05,0.73,0.14
				c0.12,0.06,0.23,0.13,0.32,0.21c0.09,0.08,0.15,0.19,0.18,0.34v0.14c0,0.06-0.02,0.12-0.05,0.18c-0.06,0.06-0.14,0.12-0.23,0.18
				c-2.57,2.02-5.49,4.1-8.76,6.24c-0.61,0.34-1.15,0.75-1.61,1.24c-0.15,0.18-0.23,0.4-0.23,0.64c0,2.48-0.55,4.72-1.65,6.74
				c-1.28,2.57-3.06,4.72-5.32,6.47c-1.96,1.5-4.19,2.49-6.69,2.98c-0.25,0.06-0.47,0.09-0.69,0.09c-0.37,0-0.73-0.06-1.1-0.18
				c-1.22-0.4-1.88-1.22-1.97-2.48c0-0.73,0.17-1.39,0.5-1.97c0.4-0.7,0.86-1.35,1.38-1.93c3.09-3.58,6.6-6.69,10.55-9.35
				c0.03,0,0.06-0.02,0.09-0.05c0.12-0.09,0.24-0.17,0.37-0.23c0.21-0.15,0.32-0.34,0.32-0.55c0-0.09-0.03-0.2-0.09-0.32
				c-0.28-0.73-0.7-1.38-1.28-1.93c-0.83-0.86-1.65-1.73-2.48-2.61c-0.95-1.01-1.62-2.14-2.02-3.39c-0.21-0.7-0.32-1.39-0.32-2.06
				c0-1.16,0.32-2.23,0.96-3.21c0.98-1.47,2.23-2.66,3.76-3.58c0.67-0.46,1.45-0.69,2.34-0.69h0.46c1.16,0.09,2.05,0.67,2.66,1.74
				c0.3,0.58,0.46,1.15,0.46,1.7c0,0.49-0.12,0.96-0.37,1.42c-0.12,0.21-0.26,0.32-0.41,0.32c-0.15,0-0.32-0.14-0.5-0.41l-0.09-0.18
				l-0.05-0.05c-0.21-0.46-0.38-0.71-0.48-0.76c-0.11-0.05-0.21-0.07-0.3-0.07c-0.15,0-0.35,0.08-0.6,0.23
				c-1.47,0.76-2.6,1.85-3.39,3.26c-0.15,0.31-0.23,0.63-0.23,0.96c0,0.49,0.17,0.99,0.5,1.51c0.24,0.4,0.52,0.75,0.83,1.05
				c0.06,0.06,0.12,0.14,0.18,0.23c0.4,0.43,0.79,0.84,1.19,1.24C323.62,220.71,324.55,221.91,325.25,223.25z M321.03,228.71v-0.18
				c-0.06,0.03-0.11,0.06-0.14,0.09c-0.09,0.03-0.15,0.06-0.18,0.09c-3.52,2.48-6.57,5.41-9.17,8.8c-0.3,0.4-0.55,0.83-0.73,1.28
				c-0.03,0.06-0.06,0.11-0.09,0.14c-0.06,0.09-0.09,0.18-0.09,0.28v0.09c0,0.09,0.03,0.17,0.09,0.23c0.06,0.06,0.14,0.09,0.23,0.09
				h0.05c0.09,0,0.18-0.01,0.28-0.05c0.06-0.03,0.12-0.04,0.18-0.04c1.56-0.46,2.92-1.22,4.08-2.29c2.57-2.26,4.39-5.04,5.46-8.35
				C321.02,228.86,321.03,228.8,321.03,228.71z"/>
			<path d="M386.7,204.5c0.12,0.06,0.24,0.11,0.34,0.14c0.11,0.03,0.22,0.05,0.34,0.05h0.14c3.58,0.37,7.15,0.58,10.73,0.64h0.92
				c4.71,0,9.29-0.66,13.76-1.97c2.6-0.73,4.88-1.97,6.83-3.71c0.79-0.7,1.44-1.53,1.93-2.48c0.37-0.73,0.55-1.47,0.55-2.2
				c0-0.98-0.31-1.96-0.92-2.93c-0.61-1.01-1.39-1.88-2.34-2.61c-2.42-1.93-5.06-3.36-7.93-4.31c-3.3-1.16-6.65-1.96-10.04-2.38
				c-2.38-0.31-4.75-0.46-7.11-0.46c-0.58,0-1.16,0.02-1.74,0.05c-4.13,0.18-8.13,0.89-12.01,2.11c-6.33,1.99-11.89,5.26-16.69,9.81
				c-1.77,1.53-3.1,3.42-3.99,5.69V200c-0.18,0.43-0.31,0.89-0.37,1.38v0.18c0,0.4,0.15,0.73,0.46,1.01
				c0.21,0.18,0.32,0.35,0.32,0.5c0,0.18-0.09,0.35-0.28,0.5c-0.21,0.18-0.47,0.27-0.78,0.27c-0.34,0-0.64-0.12-0.92-0.37
				c-0.49-0.4-0.75-0.92-0.78-1.56c0-0.7,0.12-1.36,0.37-1.97c0.79-2.05,1.88-3.87,3.26-5.46c2.45-2.81,5.26-5.17,8.44-7.06
				c6.05-3.7,12.69-5.96,19.9-6.79c2.17-0.24,4.37-0.37,6.6-0.37c2.05,0,4.13,0.11,6.24,0.32c4.8,0.43,9.51,1.6,14.12,3.53
				c1.99,0.83,3.85,1.9,5.59,3.21c0.92,0.67,1.74,1.45,2.48,2.34c1.47,1.8,2.2,3.73,2.2,5.78c0,0.83-0.12,1.68-0.37,2.57
				c-0.49,1.62-1.31,3.01-2.48,4.17c-1.62,1.71-3.52,3.06-5.69,4.04c-3.46,1.47-7.08,2.42-10.87,2.84
				c-2.66,0.37-5.33,0.55-8.02,0.55h-0.32c-0.18,0-0.35,0.03-0.5,0.09c0.09,0.09,0.18,0.16,0.28,0.21c0.09,0.05,0.18,0.1,0.27,0.16
				c0.06,0,0.12,0.02,0.18,0.05c1.38,0.61,2.69,1.35,3.94,2.2c2.29,1.53,3.88,3.61,4.77,6.24c0.09,0.31,0.17,0.48,0.23,0.53
				c0.06,0.05,0.14,0.07,0.23,0.07c0.12,0,0.29-0.03,0.5-0.09c0.86-0.15,1.73-0.29,2.61-0.41c1.99-0.34,3.97-0.69,5.96-1.05
				c2.42-0.37,4.88-0.6,7.38-0.69c0.43,0,0.84,0.03,1.24,0.09c0.21,0,0.41,0.05,0.57,0.14s0.27,0.25,0.3,0.46
				c0,0.25-0.07,0.41-0.21,0.48c-0.14,0.08-0.31,0.13-0.53,0.16c-1.68,0.21-3.35,0.49-5,0.83c-1.01,0.21-2.03,0.41-3.07,0.6
				c-1.22,0.18-2.46,0.38-3.71,0.6c-1.77,0.34-3.56,0.64-5.36,0.92c-0.21,0.03-0.37,0.1-0.46,0.21c-0.09,0.11-0.14,0.25-0.14,0.44
				v0.78c0,2.78-0.55,5.4-1.65,7.84c-1.16,2.66-2.68,5.06-4.54,7.2c-5.11,5.87-11.13,10.55-18.07,14.03
				c-5.56,2.87-11.51,4.71-17.84,5.5c-1.59,0.21-3.16,0.32-4.72,0.32c-2.75,0-5.52-0.32-8.3-0.96c-1.62-0.4-3.16-1.02-4.63-1.88
				c-0.92-0.52-1.74-1.18-2.48-1.97c-1.28-1.44-1.93-2.98-1.93-4.63c0-0.64,0.09-1.28,0.28-1.93c0.37-1.13,0.92-2.16,1.65-3.07
				c1.59-2.05,3.46-3.82,5.59-5.32c4.65-3.36,9.67-6.04,15.09-8.02c6.02-2.2,12.17-4.07,18.43-5.59c5.84-1.47,11.74-2.77,17.7-3.9
				c0.58-0.09,0.89-0.18,0.94-0.27s0.07-0.17,0.07-0.23c0-0.21-0.11-0.53-0.32-0.96c-0.37-0.89-0.89-1.68-1.56-2.38
				c-0.98-1.04-2.06-1.93-3.26-2.66c-2.42-1.47-4.92-2.69-7.52-3.67c-0.15-0.09-0.32-0.14-0.5-0.14c-0.89-0.09-1.77-0.26-2.66-0.5
				c-0.52-0.12-1.03-0.23-1.51-0.32c-0.4-0.06-0.78-0.09-1.15-0.09h-0.41c-0.34,0-0.66-0.02-0.96-0.05c-0.18,0-0.33,0.05-0.44,0.14
				s-0.19,0.2-0.25,0.32l-0.09,0.09c-0.27,0.43-0.57,0.86-0.87,1.28c-0.86,1.16-1.7,2.37-2.52,3.62c-1.77,2.63-3.39,5.38-4.86,8.25
				c-0.55,1.1-0.96,2.26-1.24,3.48c-0.09,0.4-0.29,0.6-0.6,0.6c-0.12,0-0.26-0.03-0.41-0.09c-0.52-0.21-0.89-0.61-1.1-1.19
				c-0.25-0.7-0.37-1.39-0.37-2.06c0-0.37,0.03-0.72,0.09-1.05c0.15-1.07,0.44-2.09,0.87-3.07c1.83-4.19,4.1-8.09,6.79-11.69
				c1.38-1.86,2.75-3.74,4.13-5.64c0.28-0.4,0.55-0.78,0.83-1.15c1.89-2.75,3.97-5.32,6.24-7.7c0.83-0.83,1.73-1.57,2.71-2.25
				c0.52-0.4,1.1-0.7,1.74-0.92c0.31-0.12,0.63-0.18,0.96-0.18c0.12,0,0.26,0.02,0.41,0.05c0.92,0.12,1.53,0.45,1.83,0.99
				c0.31,0.54,0.46,1,0.46,1.4c0,0.37-0.11,0.76-0.32,1.19c-0.15,0.31-0.37,0.58-0.64,0.83c-0.8,0.76-1.65,1.42-2.57,1.97
				c-0.12,0.06-0.23,0.11-0.32,0.14c-0.09,0.03-0.17,0.05-0.23,0.05c-0.06,0-0.14-0.02-0.23-0.05c-0.12-0.09-0.23-0.14-0.32-0.14
				c-0.06,0-0.11,0.02-0.14,0.05c-0.12,0.03-0.25,0.11-0.37,0.23c-2.26,2.42-4.33,5.01-6.19,7.8c-0.03,0.03-0.05,0.08-0.05,0.14
				C386.75,204.39,386.73,204.43,386.7,204.5z M356.3,253.29c0.67,0.03,1.35,0.05,2.02,0.05c4.89,0,9.71-0.69,14.44-2.06
				c7.64-2.35,14.47-6.1,20.5-11.23c2.14-1.83,4.1-3.85,5.87-6.05c1.8-2.14,3.16-4.59,4.08-7.34c0.43-1.31,0.67-2.66,0.73-4.04
				v-0.14c0-0.24-0.09-0.37-0.28-0.37l-0.18,0.05c-0.76,0.12-1.51,0.26-2.25,0.41c-0.28,0.03-0.54,0.08-0.78,0.14
				c-9.87,1.8-19.52,4.29-28.93,7.47c-2.87,0.98-5.69,2.09-8.44,3.35c-3.82,1.74-7.38,3.88-10.68,6.42
				c-1.65,1.28-3.12,2.77-4.4,4.45c-0.55,0.67-0.96,1.42-1.24,2.25c-0.15,0.46-0.23,0.9-0.23,1.33c0,1.1,0.54,2.06,1.6,2.89
				c0.79,0.58,1.65,1.04,2.57,1.38C352.72,252.9,354.59,253.26,356.3,253.29z"/>
			<path d="M424.03,228.25c0.06-0.03,0.11-0.06,0.14-0.09c0.09-0.03,0.15-0.08,0.18-0.14c1.83-1.56,3.39-3.36,4.68-5.41
				c0.18-0.28,0.28-0.57,0.28-0.87c0-0.12-0.02-0.24-0.05-0.37c-0.06-0.27-0.09-0.55-0.09-0.83c0-0.55,0.14-1.08,0.41-1.6
				c0.34-0.58,0.84-0.9,1.51-0.96c0.92,0.03,1.45,0.49,1.61,1.38v0.5c0,0.67,0.18,1.21,0.55,1.6c0.43,0.37,0.92,0.55,1.47,0.55
				c0.52,0,1.1-0.15,1.74-0.46c1.31-0.61,2.51-1.36,3.58-2.25c1.07-0.89,1.89-1.6,2.48-2.16c0.18-0.15,0.35-0.23,0.5-0.23
				c0.12,0,0.24,0.06,0.37,0.18c0.12,0.15,0.18,0.31,0.18,0.46c0,0.15-0.08,0.31-0.23,0.46c-0.73,1.13-2.16,2.45-4.26,3.94
				c-2.11,1.5-4.19,2.25-6.24,2.25c-0.37,0-0.75-0.03-1.15-0.09c-0.12-0.06-0.23-0.09-0.32-0.09c-0.06,0-0.12,0.02-0.18,0.04
				c-0.12,0.03-0.21,0.14-0.27,0.32c-0.83,1.59-1.71,3.12-2.66,4.59c-0.55,0.92-1.16,1.79-1.83,2.61c-0.64,0.83-1.47,1.44-2.48,1.83
				c-0.43,0.15-0.83,0.23-1.19,0.23c-0.52,0-1.02-0.14-1.51-0.41c-0.79-0.43-1.34-1.16-1.65-2.2c-0.12-0.46-0.18-0.92-0.18-1.38
				c0-0.4,0.05-0.78,0.14-1.15c0.03-0.4,0.11-0.79,0.23-1.19c1.32-4.55,3.52-8.56,6.6-12.01c0.79-0.86,1.67-1.6,2.61-2.25
				c0.61-0.43,1.28-0.72,2.02-0.87c0.21-0.03,0.43-0.05,0.64-0.05c0.64,0,1.21,0.17,1.7,0.5c0.67,0.46,1.12,1.13,1.33,2.02
				c0.06,0.34,0.09,0.67,0.09,1.01c0,0.92-0.28,1.76-0.83,2.52c-0.09,0.15-0.2,0.27-0.32,0.34c-0.12,0.08-0.25,0.11-0.37,0.11
				c-0.06,0-0.14-0.01-0.23-0.05c-0.37-0.15-0.58-0.43-0.64-0.83c-0.06-0.37-0.17-0.72-0.32-1.05c-0.06-0.18-0.17-0.27-0.32-0.27
				c-0.09,0-0.18,0.03-0.28,0.09c-0.06,0.06-0.14,0.12-0.23,0.18l-0.46,0.37c-1.04,0.86-1.96,1.82-2.75,2.89
				c-1.65,2.29-2.93,4.78-3.85,7.47c-0.03,0.03-0.05,0.06-0.05,0.09c-0.06,0.09-0.09,0.18-0.09,0.25c0,0.08,0,0.15,0,0.21V228.25z"
				/>
			<path d="M437.19,240.63c0.12-1.5,0.47-3.06,1.05-4.68c1.71-4.68,3.56-9.29,5.55-13.85c0.06-0.15,0.09-0.28,0.09-0.37v-0.09
				c0-0.12-0.11-0.26-0.32-0.41c-1.5-1.01-2.28-2.41-2.34-4.22v-0.28c0-0.83,0.12-1.62,0.37-2.38c0.7-2.29,1.77-4.39,3.21-6.28
				c0.73-1.04,1.63-1.86,2.71-2.48c0.52-0.28,1.08-0.46,1.7-0.55h0.14c0.64,0,1.16,0.2,1.56,0.6c0.34,0.34,0.5,0.78,0.5,1.33
				c0,0.12-0.02,0.26-0.05,0.41c-0.18,0.83-0.5,1.59-0.96,2.29c-1.28,2.23-2.78,4.3-4.49,6.19c-0.37,0.34-0.55,0.67-0.55,1.01
				c0,0.27,0.15,0.57,0.46,0.87c0.12,0.15,0.23,0.29,0.32,0.41c0.34,0.43,0.73,0.83,1.19,1.19c0.49,0.4,0.75,0.9,0.78,1.51
				c0,0.64-0.09,1.25-0.28,1.83c-0.46,1.38-0.96,2.72-1.51,4.04c-0.25,0.55-0.47,1.1-0.69,1.65c-0.31,0.76-0.61,1.54-0.92,2.34
				c-0.92,2.2-1.79,4.42-2.61,6.65c-0.18,0.64-0.35,1.28-0.5,1.93c-0.06,0.34-0.14,0.67-0.23,1.01c-0.03,0.09-0.05,0.18-0.05,0.28
				c0,0.18,0.05,0.37,0.14,0.55c0.12,0.37,0.29,0.55,0.5,0.55c0.12,0,0.27-0.08,0.46-0.23c0.67-0.46,1.27-0.98,1.79-1.56
				c1.71-1.96,3.29-4.04,4.72-6.24c3.42-5.26,6.62-10.64,9.58-16.14l0.05-0.05c0.15-0.37,0.38-0.66,0.69-0.87
				c0.15-0.09,0.31-0.14,0.46-0.14c0.15,0,0.29,0.05,0.41,0.14c0.21,0.18,0.32,0.38,0.32,0.6c0,0.12-0.02,0.23-0.05,0.32
				c-0.03,0.09-0.08,0.18-0.14,0.27c-0.03,0.03-0.05,0.06-0.05,0.09c-1.07,1.8-2.17,3.7-3.3,5.69c-1.9,3.42-3.89,6.84-5.98,10.25
				c-2.09,3.41-4.26,6.5-6.49,9.29c-0.52,0.73-1.19,1.31-2.02,1.74c-0.46,0.21-0.9,0.32-1.33,0.32c-0.55,0-1.08-0.15-1.61-0.46
				C437.95,243.92,437.19,242.56,437.19,240.63z M447,212.38v0.09c0.3-0.31,0.63-0.71,0.99-1.21s0.66-1,0.92-1.49
				c0.26-0.49,0.41-0.89,0.44-1.19c-0.8,1.07-1.5,2.17-2.11,3.3c-0.03,0.03-0.06,0.08-0.09,0.14c-0.03,0.06-0.06,0.12-0.09,0.18
				C447.01,212.26,447,212.32,447,212.38z"/>
			<path d="M459.24,229.03c0.15,0,0.3-0.03,0.44-0.09s0.27-0.14,0.39-0.23c0.06-0.06,0.12-0.11,0.18-0.14
				c1.28-0.92,2.48-1.97,3.58-3.16c1.53-1.59,3.9-4.2,7.11-7.84c0.06-0.09,0.14-0.2,0.23-0.32l0.14-0.14
				c0.15-0.15,0.29-0.27,0.41-0.37c0.12-0.09,0.24-0.14,0.37-0.14h0.09c0.06,0,0.15,0.02,0.25,0.07c0.11,0.05,0.19,0.11,0.25,0.18
				c0.06,0.08,0.09,0.16,0.09,0.25c0,0.06-0.02,0.12-0.05,0.18c-0.03,0.15-0.09,0.31-0.18,0.46l-6.28,7.7
				c-0.92,1.22-1.83,2.43-2.75,3.62l-0.05,0.05c-0.73,0.89-1.53,1.71-2.38,2.48c-0.7,0.7-1.54,1.16-2.52,1.38
				c-0.18,0.03-0.37,0.05-0.55,0.05c-1.53,0-2.51-0.84-2.93-2.52c-0.06-0.43-0.09-0.86-0.09-1.28c0-0.73,0.09-1.45,0.28-2.16
				c0.49-2.14,1.16-4.22,2.02-6.24c3.33-8.59,7.03-17.01,11.1-25.27c0.89-1.83,1.85-3.62,2.89-5.37c0.64-1.07,1.48-1.83,2.52-2.29
				c0.43-0.21,0.87-0.4,1.33-0.55l0.83-0.28c0.12-0.06,0.24-0.09,0.37-0.09c0.25,0,0.44,0.11,0.6,0.32c0.15,0.15,0.23,0.32,0.23,0.5
				c0,0.15-0.05,0.32-0.14,0.5c-0.09,0.28-0.21,0.54-0.37,0.78c-1.47,2.38-2.8,4.85-3.99,7.38c-0.15,0.31-0.32,0.63-0.5,0.96
				c-4.22,8.44-8.02,17.09-11.42,25.95c-0.61,1.53-1.08,3.09-1.42,4.68c-0.03,0.06-0.05,0.12-0.05,0.18
				c-0.03,0.12-0.05,0.25-0.05,0.37v0.14C459.2,228.85,459.21,228.94,459.24,229.03z"/>
			<path d="M477.72,223.71c-0.31,0.15-0.52,0.32-0.64,0.5l-0.09,0.18c-0.61,0.7-1.22,1.42-1.83,2.16c-0.83,0.95-1.65,1.91-2.48,2.89
				c-0.76,0.89-1.59,1.7-2.48,2.43c-0.43,0.4-0.89,0.7-1.38,0.92c-0.37,0.15-0.73,0.23-1.1,0.23s-0.72-0.09-1.05-0.28
				c-0.64-0.34-1.05-0.9-1.24-1.7c-0.09-0.4-0.14-0.78-0.14-1.15c0-0.37,0.05-0.73,0.14-1.1c1.13-4.98,3.49-9.28,7.06-12.89
				c0.7-0.67,1.48-1.22,2.34-1.65c0.12-0.09,0.24-0.15,0.37-0.18c0.58-0.21,1.12-0.32,1.6-0.32c0.89,0,1.65,0.34,2.29,1.01
				c0.43,0.52,0.65,0.98,0.67,1.38c0.01,0.4,0.02,0.63,0.02,0.69c0,0.67-0.15,1.31-0.46,1.93c-0.03,0-0.05,0.02-0.05,0.05
				c-0.03,0.06-0.06,0.11-0.09,0.14c-0.09,0.12-0.18,0.22-0.25,0.3c-0.08,0.08-0.16,0.11-0.25,0.11c-0.06,0-0.12-0.02-0.18-0.05
				c-0.15-0.03-0.25-0.1-0.3-0.21c-0.05-0.11-0.08-0.24-0.11-0.39c0-0.06-0.02-0.12-0.05-0.18c-0.03-0.31-0.08-0.6-0.14-0.87
				c-0.06-0.31-0.12-0.47-0.18-0.48c-0.06-0.02-0.11-0.02-0.14-0.02c-0.09,0-0.24,0.08-0.46,0.23c-0.95,0.64-1.79,1.39-2.52,2.25
				c-2.14,2.57-3.73,5.44-4.77,8.62v0.09c-0.03,0.06-0.05,0.12-0.05,0.18v0.09c0,0.06,0.02,0.12,0.05,0.18
				c0.34-0.12,0.64-0.31,0.92-0.55c0.06-0.06,0.12-0.11,0.18-0.14c2.66-2.05,5.07-4.36,7.25-6.92c0.73-0.83,1.33-1.74,1.79-2.75
				c0.21-0.49,0.47-0.98,0.78-1.47l0.18-0.37c0.21-0.4,0.47-0.73,0.78-1.01c0.37-0.37,0.78-0.55,1.24-0.55
				c0.18,0,0.37,0.03,0.55,0.09c0.7,0.28,1.1,0.78,1.19,1.51l0.05,0.41c0,0.4-0.08,0.8-0.23,1.19c-0.28,0.7-0.57,1.39-0.87,2.06
				c-0.37,0.76-0.66,1.38-0.87,1.83c-0.27,0.52-0.52,1.03-0.73,1.54c-0.21,0.5-0.44,1.22-0.69,2.13c-0.25,0.79-0.43,1.59-0.55,2.38
				l-0.09,0.73v0.09c0,0.34,0.08,0.5,0.23,0.5c0.12,0,0.28-0.08,0.46-0.23c0.64-0.49,1.25-1.02,1.83-1.6
				c0.43-0.46,0.86-0.9,1.28-1.33c3.09-2.9,5.56-5.73,7.43-8.48c0.24-0.31,0.53-0.57,0.87-0.78c0.09-0.09,0.18-0.14,0.27-0.14
				c0.12,0,0.23,0.05,0.32,0.14c0.12,0.09,0.18,0.21,0.18,0.37c0,0.06-0.02,0.14-0.05,0.23c-0.15,0.37-0.35,0.7-0.6,1.01
				c-0.46,0.61-0.96,1.3-1.51,2.06c-1.5,2.11-3.13,4.3-4.88,6.58s-3.34,4.03-4.75,5.25c-0.64,0.49-1.28,0.73-1.93,0.73h-0.32
				c-0.8-0.09-1.48-0.5-2.06-1.24c-0.61-0.89-0.92-1.86-0.92-2.93v-0.14c0.06-1.56,0.32-2.93,0.78-4.13
				c0.06-0.21,0.12-0.41,0.18-0.6c0.03-0.06,0.04-0.14,0.04-0.23C477.61,223.98,477.66,223.86,477.72,223.71z"/>
			<path d="M492.63,226.37c0.28-0.09,0.47-0.23,0.6-0.41c0.06-0.03,0.11-0.08,0.14-0.14c2.05-2.02,3.97-4.13,5.78-6.33l0.09-0.09
				c0.03-0.03,0.05-0.06,0.05-0.09c0.95-1.16,1.96-2.26,3.03-3.3c0.4-0.34,0.79-0.66,1.19-0.96c0.43-0.34,0.92-0.6,1.47-0.78
				c0.37-0.09,0.72-0.14,1.05-0.14c0.7,0,1.31,0.21,1.83,0.64c0.64,0.58,0.96,1.38,0.96,2.38v0.37c-0.12,0.86-0.37,1.68-0.73,2.48
				c-0.37,0.83-0.67,1.54-0.89,2.16c-0.23,0.61-0.44,1.21-0.62,1.79c-0.25,0.76-0.6,1.73-1.05,2.89c0,0.06-0.03,0.15-0.09,0.28
				c-0.12,0.27-0.25,0.58-0.37,0.92s-0.18,0.59-0.16,0.76c0.01,0.17,0.07,0.25,0.16,0.25s0.2-0.03,0.32-0.09
				c1.13-0.52,2.36-1.57,3.69-3.16c1.33-1.59,2.59-3.23,3.78-4.91c1.19-1.65,2.17-2.87,2.93-3.67l0.09-0.09
				c0.12-0.12,0.23-0.21,0.32-0.25s0.17-0.07,0.23-0.07c0.12,0,0.24,0.06,0.37,0.18c0.09,0.09,0.14,0.2,0.14,0.32v0.09
				c-0.03,0.15-0.09,0.29-0.18,0.41c-0.03,0.03-0.05,0.06-0.05,0.09c-0.61,1.13-1.83,3.02-3.67,5.66c-1.83,2.65-3.69,4.95-5.57,6.9
				c-1.88,1.96-3.39,2.93-4.52,2.93c-0.21,0-0.41-0.03-0.6-0.09c-1.16-0.61-1.79-1.57-1.88-2.89v-0.6c0-1.01,0.18-1.99,0.55-2.93
				c0.34-0.98,0.61-1.8,0.83-2.48c0.21-0.67,0.44-1.34,0.67-1.99c0.23-0.66,0.54-1.46,0.94-2.41l0.09-0.18
				c0.09-0.21,0.15-0.44,0.18-0.69l-0.14-0.05l-0.28,0.14l-0.09,0.09c-0.83,0.58-1.59,1.24-2.29,1.97c-1.99,2.14-3.84,4.4-5.55,6.79
				c-0.15,0.25-0.32,0.47-0.5,0.69c-0.58,0.79-1.16,1.58-1.74,2.34c-0.34,0.43-0.69,0.84-1.05,1.24c-0.37,0.43-0.83,0.75-1.38,0.96
				c-0.4,0.21-0.81,0.32-1.24,0.32c-0.52,0-1.04-0.18-1.56-0.55c-0.67-0.58-1.01-1.25-1.01-2.02c0-0.18,0.02-0.37,0.05-0.55
				c0.37-2.11,0.96-4.11,1.79-6.01c1.22-2.96,2.52-5.9,3.9-8.8c0.21-0.46,0.5-0.87,0.87-1.24c0.46-0.37,0.92-0.55,1.38-0.55
				c0.4,0,0.79,0.12,1.19,0.37c0.58,0.46,0.87,1.01,0.87,1.65c0,0.25-0.05,0.5-0.14,0.78c-0.25,0.61-0.5,1.19-0.78,1.74
				c-0.12,0.31-0.25,0.6-0.37,0.87c-0.95,2.11-1.88,4.22-2.8,6.33c-0.03,0.03-0.05,0.06-0.05,0.09
				C492.72,225.91,492.66,226.12,492.63,226.37z"/>
			<path d="M542.93,186.8c0.12,0.06,0.26,0.11,0.41,0.14c0.31,0.09,0.61,0.21,0.92,0.37c0.28,0.12,0.44,0.24,0.48,0.34
				c0.05,0.11,0.07,0.19,0.07,0.25c0,0.15-0.05,0.32-0.14,0.5c-0.37,0.92-0.83,1.77-1.38,2.57c-0.52,0.83-1.07,1.62-1.65,2.38
				c-0.12,0.21-0.26,0.41-0.41,0.6c-0.25,0.4-0.46,0.8-0.64,1.19c-0.12,0.25-0.92,1.57-2.38,3.99c-0.73,1.28-1.45,2.57-2.16,3.85
				l-0.92,1.65c-3.61,6.39-6.76,13.01-9.45,19.86c-0.31,0.7-0.67,1.72-1.08,3.05c-0.41,1.33-0.76,2.62-1.05,3.87
				c-0.29,1.25-0.44,2.23-0.44,2.94v0.18c0.03,0.09,0.05,0.17,0.05,0.23c0.03,0.06,0.05,0.12,0.05,0.18v0.05
				c0,0.06-0.02,0.11-0.05,0.14c-0.06,0.06-0.15,0.09-0.28,0.09c-0.15,0.03-0.29,0.05-0.41,0.05c-0.64,0-1.18-0.29-1.6-0.87
				c-0.83-1.01-1.24-2.14-1.24-3.39c0-0.4,0.05-0.81,0.14-1.24c0.34-1.74,0.79-3.44,1.38-5.09c0.09-0.24,0.18-0.5,0.27-0.78
				c0.03-0.15,0.08-0.29,0.14-0.41c-0.12,0.03-0.21,0.08-0.28,0.16c-0.06,0.08-0.12,0.15-0.18,0.21c0,0.06-0.02,0.11-0.05,0.14
				c-1.62,2.38-3.33,4.69-5.14,6.92c-0.4,0.52-0.84,0.99-1.33,1.42c-0.52,0.46-1.07,0.69-1.65,0.69c-0.37,0-0.73-0.09-1.1-0.28
				c-0.92-0.55-1.38-1.36-1.38-2.43v-0.23c0.06-0.61,0.17-1.22,0.32-1.83c0.98-3.94,2.52-7.63,4.63-11.05
				c0.73-1.22,1.61-2.34,2.61-3.35c1.28-1.28,2.8-2.03,4.54-2.25c0.24-0.06,0.47-0.09,0.69-0.09c1.1,0,1.91,0.58,2.43,1.74
				c0,0.03,0.03,0.05,0.09,0.05l0.09,0.09c0.18-0.34,0.35-0.67,0.5-1.01c0.37-0.73,0.72-1.47,1.05-2.2
				c1.25-2.84,2.61-5.59,4.08-8.25c0.46-0.83,0.9-1.65,1.33-2.48c2.63-4.62,4.75-8.04,6.37-10.27c0.73-1.19,1.74-1.99,3.03-2.38
				H542.93z M523.58,214.68c-0.58,0.21-1.07,0.5-1.47,0.87c-0.7,0.64-1.35,1.35-1.93,2.11c-1.8,2.45-3.21,5.12-4.22,8.02
				c-0.03,0.03-0.05,0.06-0.05,0.09c-0.06,0.06-0.09,0.14-0.09,0.23s0.03,0.18,0.09,0.27l0.37-0.37c0.24-0.28,0.5-0.55,0.78-0.83
				c1.8-2.02,3.5-4.16,5.09-6.42c0.37-0.46,0.72-0.93,1.05-1.42c0.37-0.49,0.55-1.02,0.55-1.6
				C523.76,215.33,523.7,215.01,523.58,214.68z"/>
		</g>
		<g>
			<path d="M219.54,273.93v6.26h-2.11V264.2h5.9c1.75,0,3.12,0.45,4.11,1.34c0.99,0.89,1.49,2.08,1.49,3.55
				c0,1.55-0.49,2.75-1.46,3.58c-0.97,0.84-2.36,1.26-4.17,1.26H219.54z M219.54,272.21h3.79c1.13,0,1.99-0.27,2.59-0.8
				c0.6-0.53,0.9-1.3,0.9-2.31c0-0.95-0.3-1.72-0.9-2.29c-0.6-0.57-1.42-0.87-2.47-0.89h-3.91V272.21z"/>
			<path d="M258.52,280.19h-2.12v-7.39h-8.06v7.39h-2.11V264.2h2.11v6.88h8.06v-6.88h2.12V280.19z"/>
			<path d="M289.19,272.71c0,1.57-0.26,2.93-0.79,4.1s-1.27,2.06-2.24,2.67c-0.97,0.62-2.09,0.92-3.38,0.92
				c-1.26,0-2.38-0.31-3.35-0.93c-0.97-0.62-1.73-1.5-2.27-2.65c-0.54-1.15-0.81-2.47-0.83-3.98v-1.15c0-1.54,0.27-2.9,0.8-4.07
				c0.53-1.18,1.29-2.08,2.27-2.71c0.98-0.63,2.1-0.94,3.35-0.94c1.28,0,2.41,0.31,3.39,0.93c0.98,0.62,1.73,1.52,2.26,2.69
				s0.79,2.54,0.79,4.1V272.71z M287.09,271.68c0-1.9-0.38-3.35-1.14-4.37c-0.76-1.01-1.83-1.52-3.2-1.52
				c-1.33,0-2.38,0.51-3.15,1.52c-0.77,1.01-1.16,2.42-1.18,4.22v1.18c0,1.84,0.39,3.28,1.16,4.33c0.77,1.05,1.84,1.58,3.19,1.58
				c1.36,0,2.42-0.5,3.16-1.49s1.13-2.41,1.15-4.27V271.68z"/>
			<path d="M317.72,265.93h-5.14v14.27h-2.1v-14.27h-5.13v-1.72h12.37V265.93z"/>
			<path d="M346.71,272.71c0,1.57-0.26,2.93-0.79,4.1s-1.27,2.06-2.24,2.67c-0.97,0.62-2.09,0.92-3.38,0.92
				c-1.26,0-2.38-0.31-3.35-0.93c-0.97-0.62-1.73-1.5-2.27-2.65c-0.54-1.15-0.81-2.47-0.83-3.98v-1.15c0-1.54,0.27-2.9,0.8-4.07
				s1.29-2.08,2.27-2.71s2.1-0.94,3.36-0.94c1.28,0,2.41,0.31,3.39,0.93c0.98,0.62,1.73,1.52,2.26,2.69s0.79,2.54,0.79,4.1V272.71z
				 M344.61,271.68c0-1.9-0.38-3.35-1.14-4.37c-0.76-1.01-1.83-1.52-3.2-1.52c-1.33,0-2.38,0.51-3.15,1.52
				c-0.77,1.01-1.16,2.42-1.18,4.22v1.18c0,1.84,0.39,3.28,1.16,4.33s1.84,1.58,3.19,1.58c1.36,0,2.42-0.5,3.16-1.49
				s1.13-2.41,1.15-4.27V271.68z"/>
			<path d="M376.29,278.1c-0.54,0.78-1.3,1.36-2.27,1.74c-0.97,0.38-2.1,0.58-3.39,0.58c-1.3,0-2.46-0.31-3.47-0.92
				c-1.01-0.61-1.79-1.48-2.34-2.61c-0.55-1.13-0.84-2.43-0.85-3.92v-1.39c0-2.41,0.56-4.28,1.69-5.6s2.7-1.99,4.74-1.99
				c1.67,0,3.01,0.43,4.03,1.28c1.02,0.85,1.64,2.06,1.87,3.63h-2.11c-0.39-2.12-1.65-3.18-3.78-3.18c-1.41,0-2.48,0.5-3.21,1.49
				c-0.73,0.99-1.1,2.43-1.1,4.31v1.31c0,1.79,0.41,3.22,1.23,4.28c0.82,1.06,1.93,1.59,3.33,1.59c0.79,0,1.48-0.09,2.08-0.26
				c0.59-0.17,1.08-0.47,1.47-0.89v-3.58h-3.7v-1.72h5.8V278.1z"/>
			<path d="M400.29,273.72h-3.76v6.47h-2.12V264.2h5.29c1.8,0,3.19,0.41,4.16,1.23c0.97,0.82,1.46,2.01,1.46,3.58
				c0,1-0.27,1.86-0.81,2.6s-1.29,1.29-2.25,1.66l3.76,6.79v0.13h-2.26L400.29,273.72z M396.54,272h3.24c1.05,0,1.88-0.27,2.5-0.81
				c0.62-0.54,0.93-1.27,0.93-2.18c0-0.99-0.29-1.75-0.88-2.28c-0.59-0.53-1.44-0.8-2.55-0.8h-3.23V272z"/>
			<path d="M431.73,276.01h-6.7l-1.5,4.18h-2.17l6.11-15.99h1.85l6.12,15.99h-2.16L431.73,276.01z M425.66,274.28h5.44l-2.72-7.48
				L425.66,274.28z"/>
			<path d="M454.3,273.93v6.26h-2.11V264.2h5.9c1.75,0,3.12,0.45,4.11,1.34c0.99,0.89,1.49,2.08,1.49,3.55
				c0,1.55-0.49,2.75-1.46,3.58c-0.97,0.84-2.36,1.26-4.17,1.26H454.3z M454.3,272.21h3.79c1.13,0,1.99-0.27,2.59-0.8
				c0.6-0.53,0.9-1.3,0.9-2.31c0-0.95-0.3-1.72-0.9-2.29c-0.6-0.57-1.42-0.87-2.47-0.89h-3.91V272.21z"/>
			<path d="M493.28,280.19h-2.12v-7.39h-8.06v7.39H481V264.2h2.11v6.88h8.06v-6.88h2.12V280.19z"/>
			<path d="M516.22,272.23l4.17-8.03h2.39l-5.51,10.03v5.96h-2.11v-5.96l-5.51-10.03h2.42L516.22,272.23z"/>
		</g>
	</g>
	<g>
		<g>
			<path d="M330.45,174.14c0-1.32,0.01-2.64,0.01-3.96c0-0.47,0.18-0.75,0.63-0.9c4.5-1.52,8.87-1.22,13.12,0.89
				c0.3,0.15,0.53,0.35,0.54,0.72c0.01,0.39-0.22,0.6-0.53,0.77c-4.2,2.38-8.39,4.77-12.59,7.15c-0.69,0.39-1.26,0.06-1.26-0.73
				c0-1.32,0.01-2.64,0.01-3.96C330.41,174.14,330.43,174.14,330.45,174.14z"/>
			<path d="M344.37,190.87c0.01-2.37,0.01-4.75,0.02-7.12c0-0.94,0.55-1.26,1.35-0.79c2.23,1.32,4.47,2.64,6.7,3.96
				c0.47,0.28,0.59,0.51,0.49,1.03c-0.93,4.62-3.35,8.25-7.27,10.87c-0.3,0.2-0.6,0.35-0.96,0.16c-0.36-0.2-0.4-0.53-0.4-0.89
				c0.01-2.4,0.01-4.8,0.02-7.2C344.33,190.87,344.35,190.87,344.37,190.87z"/>
			<path d="M353.25,184.13c-0.04,0.36-0.14,0.65-0.44,0.83c-0.3,0.18-0.58,0.12-0.86-0.05c-4.2-2.47-8.4-4.93-12.59-7.4
				c-0.61-0.36-0.61-1.03,0.01-1.38c2.33-1.32,4.66-2.63,6.99-3.96c0.4-0.23,0.73-0.14,1.06,0.15c2.65,2.31,4.44,5.16,5.28,8.58
				C352.95,181.95,353.07,183.05,353.25,184.13z"/>
			<path d="M320.07,185.52c0.01-0.64,0.63-0.95,1.24-0.59c1.85,1.09,3.7,2.19,5.56,3.28c2.3,1.35,4.6,2.69,6.9,4.03
				c0.31,0.18,0.59,0.38,0.58,0.79c-0.01,0.41-0.29,0.6-0.6,0.77c-2.24,1.26-4.47,2.52-6.7,3.79c-0.57,0.32-0.76,0.3-1.26-0.14
				c-3.28-2.89-5.14-6.51-5.64-10.85C320.1,186.25,320.09,185.91,320.07,185.52z"/>
			<path d="M342.81,195.65c0,1.29,0,2.58-0.01,3.87c0,0.67-0.12,0.85-0.76,1.06c-4.44,1.47-8.76,1.17-12.96-0.9
				c-0.31-0.15-0.57-0.34-0.59-0.73c-0.02-0.41,0.24-0.62,0.56-0.8c4.17-2.37,8.34-4.74,12.51-7.11c0.29-0.17,0.58-0.28,0.9-0.1
				c0.3,0.17,0.4,0.42,0.4,0.76c-0.01,1.32-0.01,2.64-0.01,3.96C342.84,195.65,342.83,195.65,342.81,195.65z"/>
			<path d="M328.88,178.92c-0.01,2.4-0.01,4.8-0.02,7.2c0,0.89-0.55,1.21-1.31,0.76c-2.24-1.31-4.47-2.63-6.7-3.95
				c-0.54-0.32-0.62-0.51-0.49-1.13c0.92-4.58,3.34-8.15,7.2-10.77c0.31-0.21,0.63-0.37,1-0.17c0.38,0.2,0.41,0.56,0.4,0.93
				c-0.01,2.37-0.01,4.75-0.02,7.12C328.92,178.92,328.9,178.92,328.88,178.92z"/>
		</g>
		<path d="M357.72,185.37c-0.43,12.04-10.07,21.07-22.1,20.57c-11.3-0.47-20.48-9.99-20-21.85c0.47-11.65,10.23-20.86,22.29-20.17
			C349.1,164.55,357.86,173.81,357.72,185.37z M336.65,166.25c-10.26-0.02-18.65,8.36-18.66,18.66
			c-0.01,10.27,8.34,18.87,19.07,18.67c9.94-0.19,18.24-8.25,18.27-18.68C355.37,174.66,346.94,166.27,336.65,166.25z"/>
		<path d="M356.31,161.22c-0.79,0-1.48,0.03-2.17-0.02c-0.18-0.01-0.41-0.22-0.49-0.39c-0.62-1.45-1.22-2.91-1.82-4.37
			c-0.08-0.19-0.18-0.36-0.25-0.55c-0.57-1.39-1.45-2.02-3.1-2c-8.14,0.1-16.29,0.05-24.43,0.03c-0.79,0-1.35,0.25-1.7,0.92
			c-0.56,1.1-1.1,2.21-1.6,3.33c-0.37,0.83-0.69,1.68-1.01,2.53c-0.14,0.36-0.31,0.55-0.74,0.53c-0.62-0.04-1.25-0.01-1.98-0.01
			c0.29-0.73,0.55-1.42,0.84-2.09c0.68-1.6,1.33-3.22,2.1-4.77c0.35-0.71,0.91-1.33,1.46-1.91c0.56-0.6,1.33-0.83,2.16-0.83
			c7.17,0,14.34,0,21.52,0.01c1.4,0,2.8,0.05,4.19-0.02c1.78-0.09,2.98,0.77,3.82,2.22c0.51,0.89,0.94,1.83,1.35,2.78
			C355.07,158.09,355.66,159.61,356.31,161.22z"/>
		<path d="M321.35,163.57c-0.44,0.75-0.8,1.43-1.23,2.06c-0.11,0.16-0.44,0.24-0.67,0.24c-4.94,0.01-9.88,0.02-14.82,0.01
			c-3.3-0.01-5.96,1.25-7.98,3.87c-0.89,1.15-1.48,2.65-1.81,4.68c-0.73,0-1.47,0-2.27,0c0-1.28,0.34-2.49,0.84-3.63
			c1.73-3.9,4.71-6.28,8.92-7.08c0.61-0.12,1.25-0.16,1.87-0.16c5.55-0.01,11.1-0.01,16.65-0.01
			C320.99,163.54,321.13,163.55,321.35,163.57z"/>
		<path d="M380.66,173.59c-0.78-0.08-1.47-0.12-2.14-0.23c-0.14-0.02-0.31-0.28-0.36-0.45c-0.57-1.99-1.62-3.65-3.24-4.94
			c-1.76-1.41-3.77-2.08-6.01-2.08c-4.99,0-9.97-0.01-14.96,0.01c-0.47,0-0.77-0.09-0.98-0.58c-0.25-0.59-0.65-1.11-1.02-1.73
			c0.22-0.01,0.37-0.03,0.52-0.03c5.47,0,10.94-0.01,16.42,0c5.75,0.02,10.4,3.77,11.67,9.37
			C380.6,173.11,380.62,173.31,380.66,173.59z"/>
		<path d="M367.84,172.57c-2.62,0-5.2,0-7.83,0c0-1.44,0-2.85,0-4.32c2.58,0,5.18,0,7.83,0
			C367.84,169.66,367.84,171.09,367.84,172.57z M366.48,171.17c0-0.55,0-1.04,0-1.52c-1.73,0-3.41,0-5.1,0c0,0.53,0,1.01,0,1.52
			C363.09,171.17,364.76,171.17,366.48,171.17z"/>
		<path d="M312.88,157.85c0,1.17,0,2.3,0,3.47c-0.52-0.04-1-0.08-1.55-0.12c0-0.59,0-1.16,0-1.77c-2.13,0-4.19,0-6.33,0
			c0,0.56,0,1.13,0,1.75c-0.57,0-1.06,0-1.59,0c0-1.1,0-2.18,0-3.32C306.55,157.85,309.7,157.85,312.88,157.85z"/>
	</g>
</g>
</svg>
